# xmcd
# 
# Track frame offsets:
#   150
#   11977
#   26095
#   38090
#   50257
#   65017
#   78415
#   95177
#   109565
#   123317
#   142067
#   156225
#   169970
#   185832
#   200857
# 
# Disc length: 2820 seconds
# 
# Revision: 1
# Processed by: cddbd v1.5.2PL0 Copyright (c) Steve Scherf et al.
# Submitted via: Synapstar 1.0 
# 
DISCID=e00b020f
DTITLE=Patsy Cline - MM # 6084
DYEAR=1900
DGENRE=Country
TTITLE0=Back In Baby's Arms
TTITLE1=Someday
TTITLE2=Strange
TTITLE3=Leavin' On Your Mind
TTITLE4=Crazy
TTITLE5=A Poor Man's Roses
TTITLE6=Why Can't He Be You
TTITLE7=You're Stronger Than Me
TTITLE8=He Called Me Baby
TTITLE9=Faded Love
TTITLE10=The Eyes Of A Child
TTITLE11=Always
TTITLE12=I Fall To Pieces
TTITLE13=You Took Him Off My Hands
TTITLE14=Blue Moon Of Kentucky
EXTD=Karaoke\n MediaType: Karaoke CD+G Producer: Unknown
EXTT0=
EXTT1=
EXTT2=
EXTT3=
EXTT4=
EXTT5=
EXTT6=
EXTT7=
EXTT8=
EXTT9=
EXTT10=
EXTT11=
EXTT12=
EXTT13=
EXTT14=
PLAYORDER=
